<svg width="1440" height="116" viewBox="0 0 1440 116" fill="none" xmlns="http://www.w3.org/2000/svg">
<rect width="58" height="58" fill="#D9D9D9"/>
<rect width="58" height="58" fill="#1E1E1E"/>
<rect x="58" y="58" width="58" height="58" fill="#D9D9D9"/>
<rect x="58" y="58" width="58" height="58" fill="#1E1E1E"/>
<rect x="116" width="58" height="58" fill="#D9D9D9"/>
<rect x="116" width="58" height="58" fill="#1E1E1E"/>
<rect x="174" y="58" width="58" height="58" fill="#D9D9D9"/>
<rect x="174" y="58" width="58" height="58" fill="#1E1E1E"/>
<rect x="232" width="58" height="58" fill="#D9D9D9"/>
<rect x="232" width="58" height="58" fill="#1E1E1E"/>
<rect x="290" y="58" width="58" height="58" fill="#D9D9D9"/>
<rect x="290" y="58" width="58" height="58" fill="#1E1E1E"/>
<rect x="348" width="58" height="58" fill="#D9D9D9"/>
<rect x="348" width="58" height="58" fill="#1E1E1E"/>
<rect x="406" y="58" width="58" height="58" fill="#D9D9D9"/>
<rect x="406" y="58" width="58" height="58" fill="#1E1E1E"/>
<rect x="464" width="58" height="58" fill="#D9D9D9"/>
<rect x="464" width="58" height="58" fill="#1E1E1E"/>
<rect x="522" y="58" width="58" height="58" fill="#D9D9D9"/>
<rect x="522" y="58" width="58" height="58" fill="#1E1E1E"/>
<rect x="580" width="58" height="58" fill="#D9D9D9"/>
<rect x="580" width="58" height="58" fill="#1E1E1E"/>
<rect x="638" y="58" width="58" height="58" fill="#D9D9D9"/>
<rect x="638" y="58" width="58" height="58" fill="#1E1E1E"/>
<rect width="58" height="58" fill="#D9D9D9"/>
<rect width="58" height="58" fill="#1E1E1E"/>
<rect x="58" y="58" width="58" height="58" fill="#D9D9D9"/>
<rect x="58" y="58" width="58" height="58" fill="#1E1E1E"/>
<rect x="116" width="58" height="58" fill="#D9D9D9"/>
<rect x="116" width="58" height="58" fill="#1E1E1E"/>
<rect x="174" y="58" width="58" height="58" fill="#D9D9D9"/>
<rect x="174" y="58" width="58" height="58" fill="#1E1E1E"/>
<rect x="232" width="58" height="58" fill="#D9D9D9"/>
<rect x="232" width="58" height="58" fill="#1E1E1E"/>
<rect x="290" y="58" width="58" height="58" fill="#D9D9D9"/>
<rect x="290" y="58" width="58" height="58" fill="#1E1E1E"/>
<rect x="348" width="58" height="58" fill="#D9D9D9"/>
<rect x="348" width="58" height="58" fill="#1E1E1E"/>
<rect x="406" y="58" width="58" height="58" fill="#D9D9D9"/>
<rect x="406" y="58" width="58" height="58" fill="#1E1E1E"/>
<rect x="464" width="58" height="58" fill="#D9D9D9"/>
<rect x="464" width="58" height="58" fill="#1E1E1E"/>
<rect x="522" y="58" width="58" height="58" fill="#D9D9D9"/>
<rect x="522" y="58" width="58" height="58" fill="#1E1E1E"/>
<rect x="580" width="58" height="58" fill="#D9D9D9"/>
<rect x="580" width="58" height="58" fill="#1E1E1E"/>
<rect x="638" y="58" width="58" height="58" fill="#D9D9D9"/>
<rect x="638" y="58" width="58" height="58" fill="#1E1E1E"/>
<rect x="696" width="58" height="58" fill="#D9D9D9"/>
<rect x="696" width="58" height="58" fill="#1E1E1E"/>
<rect x="754" y="58" width="58" height="58" fill="#D9D9D9"/>
<rect x="754" y="58" width="58" height="58" fill="#1E1E1E"/>
<rect x="812" width="58" height="58" fill="#D9D9D9"/>
<rect x="812" width="58" height="58" fill="#1E1E1E"/>
<rect x="870" y="58" width="58" height="58" fill="#D9D9D9"/>
<rect x="870" y="58" width="58" height="58" fill="#1E1E1E"/>
<rect x="928" width="58" height="58" fill="#D9D9D9"/>
<rect x="928" width="58" height="58" fill="#1E1E1E"/>
<rect x="986" y="58" width="58" height="58" fill="#D9D9D9"/>
<rect x="986" y="58" width="58" height="58" fill="#1E1E1E"/>
<rect x="1044" width="58" height="58" fill="#D9D9D9"/>
<rect x="1044" width="58" height="58" fill="#1E1E1E"/>
<rect x="1102" y="58" width="58" height="58" fill="#D9D9D9"/>
<rect x="1102" y="58" width="58" height="58" fill="#1E1E1E"/>
<rect x="1160" width="58" height="58" fill="#D9D9D9"/>
<rect x="1160" width="58" height="58" fill="#1E1E1E"/>
<rect x="1218" y="58" width="58" height="58" fill="#D9D9D9"/>
<rect x="1218" y="58" width="58" height="58" fill="#1E1E1E"/>
<rect x="1276" width="58" height="58" fill="#D9D9D9"/>
<rect x="1276" width="58" height="58" fill="#1E1E1E"/>
<rect x="1334" y="58" width="58" height="58" fill="#D9D9D9"/>
<rect x="1334" y="58" width="58" height="58" fill="#1E1E1E"/>
<rect x="1392" width="48" height="58" fill="#1E1E1E"/>
</svg>
